<?xml version="1.0" standalone="no"?>
<!DOCTYPE svg PUBLIC "-//W3C//DTD SVG 20010904//EN"
 "http://www.w3.org/TR/2001/REC-SVG-20010904/DTD/svg10.dtd">
<svg version="1.0" xmlns="http://www.w3.org/2000/svg"
 width="256.000000pt" height="256.000000pt" viewBox="0 0 256.000000 256.000000"
 preserveAspectRatio="xMidYMid meet">
<metadata>
Created by potrace 1.11, written by Peter Selinger 2001-2013
</metadata>
<g transform="translate(0.000000,256.000000) scale(0.100000,-0.100000)"
fill="#000000" stroke="none">
<path d="M1250 1905 c-8 -10 -13 -51 -13 -118 l-1 -102 45 0 44 0 2 102 c2 81
0 105 -13 117 -20 20 -48 20 -64 1z"/>
<path d="M1048 1799 c-16 -9 -16 -13 3 -62 37 -99 46 -108 78 -88 12 8 9 20
-14 75 -32 76 -43 88 -67 75z"/>
<path d="M1468 1788 c-7 -13 -22 -46 -34 -75 l-21 -51 25 -11 c13 -7 25 -10
27 -9 1 2 14 33 30 70 23 56 26 70 15 83 -17 21 -27 19 -42 -7z"/>
<path d="M823 1724 c-14 -21 -13 -26 5 -51 11 -15 46 -53 76 -83 l56 -54 32
32 33 32 -69 69 c-77 78 -109 91 -133 55z"/>
<path d="M1617 1673 c-42 -42 -77 -77 -77 -78 0 -1 13 -16 29 -33 l30 -31 75
76 c42 41 76 83 76 92 0 23 -12 37 -35 45 -17 5 -37 -10 -98 -71z"/>
<path d="M1180 1611 c-102 -32 -177 -98 -223 -199 -18 -38 -22 -65 -22 -142 0
-85 3 -101 29 -150 70 -137 195 -208 346 -198 154 11 277 114 316 267 66 261
-189 502 -446 422z"/>
<path d="M1740 1493 c-30 -13 -63 -26 -72 -30 -19 -6 -21 -13 -12 -37 8 -22
19 -20 91 10 66 28 79 43 60 67 -10 12 -19 11 -67 -10z"/>
<path d="M746 1493 c-9 -23 4 -33 82 -64 l67 -27 9 25 c4 13 6 25 5 27 -13 9
-133 56 -144 56 -7 0 -16 -8 -19 -17z"/>
<path d="M659 1312 c-23 -16 -24 -45 -3 -67 14 -13 34 -16 113 -13 l96 3 3 43
c2 29 -1 42 -10 43 -86 6 -184 2 -199 -9z"/>
<path d="M1690 1279 l0 -47 95 -1 c111 -2 135 7 135 49 0 37 -19 43 -142 44
l-88 1 0 -46z"/>
<path d="M818 1102 c-43 -19 -78 -38 -78 -43 0 -4 7 -14 15 -23 14 -13 22 -12
83 15 82 37 84 39 69 65 -12 21 -12 21 -89 -14z"/>
<path d="M1655 1109 c-8 -25 -11 -22 48 -48 66 -30 103 -36 110 -19 8 23 -4
34 -67 62 -71 31 -83 32 -91 5z"/>
<path d="M904 962 c-90 -87 -106 -120 -70 -144 24 -17 46 -5 114 64 l72 71
-28 28 c-15 16 -30 29 -33 29 -3 0 -27 -21 -55 -48z"/>
<path d="M1567 982 l-27 -28 74 -72 c41 -40 82 -72 93 -72 24 0 43 19 43 43 0
20 -126 157 -145 157 -6 0 -23 -13 -38 -28z"/>
<path d="M1087 878 c-43 -105 -50 -129 -38 -141 19 -19 40 3 72 77 16 38 28
70 27 71 -2 1 -13 8 -25 14 -20 10 -24 8 -36 -21z"/>
<path d="M1442 899 c-29 -11 -28 -22 11 -99 34 -69 50 -82 65 -53 6 13 0 38
-22 89 -29 65 -33 70 -54 63z"/>
<path d="M1239 835 c-6 -167 0 -195 41 -195 18 0 33 7 39 18 11 21 14 202 3
203 -74 7 -82 5 -83 -26z"/>
</g>
</svg>
